<svg version="1.1" xmlns="http://www.w3.org/2000/svg" width="32" height="32" viewBox="0 0 32 32"><path fill="#fff" d="M30.495 15.63c0 7.752-6.333 14.040-14.152 14.040-2.483 0-4.81-0.632-6.838-1.749l-7.836 2.493 2.552-7.538c-1.286-2.115-2.030-4.599-2.030-7.251 0-7.755 6.335-14.041 14.157-14.041 7.814 0 14.147 6.289 14.147 14.047v0zM16.343 3.824c-6.559 0-11.897 5.295-11.897 11.806 0 2.584 0.84 4.975 2.268 6.921l-1.487 4.384 4.572-1.455c1.882 1.235 4.131 1.955 6.544 1.955 6.559 0 11.898-5.296 11.898-11.804 0-6.511-5.338-11.807-11.898-11.807v0zM23.49 18.861c-0.087-0.143-0.316-0.231-0.665-0.399-0.343-0.175-2.052-1.007-2.368-1.12-0.321-0.115-0.55-0.175-0.78 0.174-0.23 0.344-0.895 1.114-1.103 1.348-0.201 0.231-0.403 0.257-0.748 0.088-0.348-0.175-1.468-0.536-2.79-1.707-1.033-0.914-1.731-2.038-1.933-2.387-0.202-0.344-0.018-0.527 0.151-0.697 0.156-0.156 0.348-0.404 0.523-0.606s0.23-0.344 0.344-0.573c0.114-0.231 0.059-0.432-0.027-0.602-0.087-0.175-0.78-1.869-1.069-2.557s-0.579-0.572-0.781-0.572-0.431-0.028-0.666-0.028c-0.23 0-0.605 0.083-0.921 0.432-0.322 0.344-1.216 1.175-1.216 2.868 0 1.699 1.243 3.333 1.418 3.563 0.175 0.226 2.4 3.82 5.926 5.196 3.53 1.379 3.53 0.917 4.163 0.859 0.637-0.058 2.052-0.83 2.341-1.634 0.288-0.81 0.288-1.497 0.2-1.645v0z"></path></svg>
